<mxfile host="Electron" agent="Mozilla/5.0 (Windows NT 10.0; Win64; x64) AppleWebKit/537.36 (KHTML, like Gecko) draw.io/25.0.2 Chrome/128.0.6613.186 Electron/32.2.5 Safari/537.36" version="25.0.2">
  <diagram name="Trang-1" id="J8fKqkhQWCktOwnavpMa">
    <mxGraphModel dx="1219" dy="769" grid="1" gridSize="10" guides="1" tooltips="1" connect="1" arrows="1" fold="1" page="1" pageScale="1" pageWidth="827" pageHeight="1169" math="0" shadow="0">
      <root>
        <mxCell id="0" />
        <mxCell id="1" parent="0" />
        <mxCell id="ZvPmPtM3IWRFJQo_KCjR-1" style="edgeStyle=orthogonalEdgeStyle;rounded=0;orthogonalLoop=1;jettySize=auto;html=1;exitX=0.5;exitY=1;exitDx=0;exitDy=0;exitPerimeter=0;" edge="1" parent="1" source="ZvPmPtM3IWRFJQo_KCjR-2">
          <mxGeometry relative="1" as="geometry">
            <mxPoint x="400" y="140" as="targetPoint" />
          </mxGeometry>
        </mxCell>
        <mxCell id="ZvPmPtM3IWRFJQo_KCjR-2" value="Start" style="strokeWidth=2;html=1;shape=mxgraph.flowchart.start_1;whiteSpace=wrap;" vertex="1" parent="1">
          <mxGeometry x="350" y="30" width="100" height="60" as="geometry" />
        </mxCell>
        <mxCell id="ZvPmPtM3IWRFJQo_KCjR-3" style="edgeStyle=orthogonalEdgeStyle;rounded=0;orthogonalLoop=1;jettySize=auto;html=1;exitX=0.5;exitY=1;exitDx=0;exitDy=0;" edge="1" parent="1" source="ZvPmPtM3IWRFJQo_KCjR-4" target="ZvPmPtM3IWRFJQo_KCjR-7">
          <mxGeometry relative="1" as="geometry">
            <mxPoint x="400" y="250" as="targetPoint" />
          </mxGeometry>
        </mxCell>
        <mxCell id="ZvPmPtM3IWRFJQo_KCjR-4" value="Nhập điểm số&amp;nbsp;" style="rounded=1;whiteSpace=wrap;html=1;absoluteArcSize=1;arcSize=14;strokeWidth=2;" vertex="1" parent="1">
          <mxGeometry x="330" y="140" width="140" height="70" as="geometry" />
        </mxCell>
        <mxCell id="ZvPmPtM3IWRFJQo_KCjR-6" style="edgeStyle=orthogonalEdgeStyle;rounded=0;orthogonalLoop=1;jettySize=auto;html=1;exitX=1;exitY=0.5;exitDx=0;exitDy=0;exitPerimeter=0;" edge="1" parent="1" source="ZvPmPtM3IWRFJQo_KCjR-7">
          <mxGeometry relative="1" as="geometry">
            <mxPoint x="550" y="340" as="targetPoint" />
          </mxGeometry>
        </mxCell>
        <mxCell id="ZvPmPtM3IWRFJQo_KCjR-27" style="edgeStyle=orthogonalEdgeStyle;rounded=0;orthogonalLoop=1;jettySize=auto;html=1;exitX=0.5;exitY=1;exitDx=0;exitDy=0;exitPerimeter=0;" edge="1" parent="1">
          <mxGeometry relative="1" as="geometry">
            <mxPoint x="490" y="540" as="targetPoint" />
            <mxPoint x="400" y="440" as="sourcePoint" />
          </mxGeometry>
        </mxCell>
        <mxCell id="ZvPmPtM3IWRFJQo_KCjR-28" style="edgeStyle=orthogonalEdgeStyle;rounded=0;orthogonalLoop=1;jettySize=auto;html=1;exitX=0.5;exitY=1;exitDx=0;exitDy=0;exitPerimeter=0;" edge="1" parent="1" source="ZvPmPtM3IWRFJQo_KCjR-7">
          <mxGeometry relative="1" as="geometry">
            <mxPoint x="400" y="540" as="targetPoint" />
          </mxGeometry>
        </mxCell>
        <mxCell id="ZvPmPtM3IWRFJQo_KCjR-7" value="điểm &amp;gt; 4" style="strokeWidth=2;html=1;shape=mxgraph.flowchart.decision;whiteSpace=wrap;" vertex="1" parent="1">
          <mxGeometry x="350" y="290" width="100" height="100" as="geometry" />
        </mxCell>
        <mxCell id="ZvPmPtM3IWRFJQo_KCjR-8" value="False" style="text;html=1;align=center;verticalAlign=middle;resizable=0;points=[];autosize=1;strokeColor=none;fillColor=none;" vertex="1" parent="1">
          <mxGeometry x="475" y="308" width="50" height="30" as="geometry" />
        </mxCell>
        <mxCell id="ZvPmPtM3IWRFJQo_KCjR-9" value="True" style="text;html=1;align=center;verticalAlign=middle;resizable=0;points=[];autosize=1;strokeColor=none;fillColor=none;" vertex="1" parent="1">
          <mxGeometry x="320" y="360" width="50" height="30" as="geometry" />
        </mxCell>
        <mxCell id="ZvPmPtM3IWRFJQo_KCjR-12" style="edgeStyle=orthogonalEdgeStyle;rounded=0;orthogonalLoop=1;jettySize=auto;html=1;exitX=0.5;exitY=1;exitDx=0;exitDy=0;" edge="1" parent="1">
          <mxGeometry relative="1" as="geometry">
            <mxPoint x="460" y="770" as="targetPoint" />
            <mxPoint x="610" y="360" as="sourcePoint" />
            <Array as="points">
              <mxPoint x="610" y="770" />
            </Array>
          </mxGeometry>
        </mxCell>
        <mxCell id="ZvPmPtM3IWRFJQo_KCjR-14" value="End" style="strokeWidth=2;html=1;shape=mxgraph.flowchart.start_1;whiteSpace=wrap;" vertex="1" parent="1">
          <mxGeometry x="350" y="740" width="100" height="60" as="geometry" />
        </mxCell>
        <mxCell id="ZvPmPtM3IWRFJQo_KCjR-15" value="không đạt" style="whiteSpace=wrap;html=1;" vertex="1" parent="1">
          <mxGeometry x="550" y="300" width="120" height="60" as="geometry" />
        </mxCell>
        <mxCell id="ZvPmPtM3IWRFJQo_KCjR-29" style="edgeStyle=orthogonalEdgeStyle;rounded=0;orthogonalLoop=1;jettySize=auto;html=1;" edge="1" parent="1">
          <mxGeometry relative="1" as="geometry">
            <mxPoint x="190" y="538" as="targetPoint" />
            <mxPoint x="400" y="440" as="sourcePoint" />
          </mxGeometry>
        </mxCell>
        <mxCell id="ZvPmPtM3IWRFJQo_KCjR-30" value="" style="edgeStyle=none;orthogonalLoop=1;jettySize=auto;html=1;rounded=0;" edge="1" parent="1">
          <mxGeometry width="100" relative="1" as="geometry">
            <mxPoint x="280" y="440" as="sourcePoint" />
            <mxPoint x="280" y="540" as="targetPoint" />
            <Array as="points" />
          </mxGeometry>
        </mxCell>
        <mxCell id="ZvPmPtM3IWRFJQo_KCjR-41" style="edgeStyle=orthogonalEdgeStyle;rounded=0;orthogonalLoop=1;jettySize=auto;html=1;exitX=0.5;exitY=1;exitDx=0;exitDy=0;exitPerimeter=0;" edge="1" parent="1" source="ZvPmPtM3IWRFJQo_KCjR-37" target="ZvPmPtM3IWRFJQo_KCjR-42">
          <mxGeometry relative="1" as="geometry">
            <mxPoint x="190.1379310344828" y="640" as="targetPoint" />
          </mxGeometry>
        </mxCell>
        <mxCell id="ZvPmPtM3IWRFJQo_KCjR-37" value="4&amp;lt;điểm &amp;lt;=6" style="strokeWidth=2;html=1;shape=mxgraph.flowchart.decision;whiteSpace=wrap;" vertex="1" parent="1">
          <mxGeometry x="150" y="540" width="80" height="60" as="geometry" />
        </mxCell>
        <mxCell id="ZvPmPtM3IWRFJQo_KCjR-38" value="9&amp;lt;điểm &amp;lt;=10" style="strokeWidth=2;html=1;shape=mxgraph.flowchart.decision;whiteSpace=wrap;" vertex="1" parent="1">
          <mxGeometry x="450" y="540" width="80" height="60" as="geometry" />
        </mxCell>
        <mxCell id="ZvPmPtM3IWRFJQo_KCjR-46" style="edgeStyle=orthogonalEdgeStyle;rounded=0;orthogonalLoop=1;jettySize=auto;html=1;exitX=0.5;exitY=1;exitDx=0;exitDy=0;exitPerimeter=0;entryX=0.5;entryY=0;entryDx=0;entryDy=0;" edge="1" parent="1" source="ZvPmPtM3IWRFJQo_KCjR-39" target="ZvPmPtM3IWRFJQo_KCjR-43">
          <mxGeometry relative="1" as="geometry" />
        </mxCell>
        <mxCell id="ZvPmPtM3IWRFJQo_KCjR-39" value="6&amp;lt;điểm &amp;lt;=8" style="strokeWidth=2;html=1;shape=mxgraph.flowchart.decision;whiteSpace=wrap;" vertex="1" parent="1">
          <mxGeometry x="240" y="540" width="80" height="60" as="geometry" />
        </mxCell>
        <mxCell id="ZvPmPtM3IWRFJQo_KCjR-40" value="8&amp;lt;điểm &amp;lt;=9" style="strokeWidth=2;html=1;shape=mxgraph.flowchart.decision;whiteSpace=wrap;" vertex="1" parent="1">
          <mxGeometry x="360" y="540" width="80" height="60" as="geometry" />
        </mxCell>
        <mxCell id="ZvPmPtM3IWRFJQo_KCjR-49" style="edgeStyle=orthogonalEdgeStyle;rounded=0;orthogonalLoop=1;jettySize=auto;html=1;exitX=0.5;exitY=1;exitDx=0;exitDy=0;entryX=0.5;entryY=0;entryDx=0;entryDy=0;entryPerimeter=0;" edge="1" parent="1" source="ZvPmPtM3IWRFJQo_KCjR-42" target="ZvPmPtM3IWRFJQo_KCjR-14">
          <mxGeometry relative="1" as="geometry">
            <mxPoint x="190.1379310344828" y="720" as="targetPoint" />
          </mxGeometry>
        </mxCell>
        <mxCell id="ZvPmPtM3IWRFJQo_KCjR-42" value="Trung Bình" style="rounded=1;whiteSpace=wrap;html=1;absoluteArcSize=1;arcSize=14;strokeWidth=2;" vertex="1" parent="1">
          <mxGeometry x="160" y="650" width="60" height="40" as="geometry" />
        </mxCell>
        <mxCell id="ZvPmPtM3IWRFJQo_KCjR-50" style="edgeStyle=orthogonalEdgeStyle;rounded=0;orthogonalLoop=1;jettySize=auto;html=1;exitX=0.5;exitY=1;exitDx=0;exitDy=0;" edge="1" parent="1" source="ZvPmPtM3IWRFJQo_KCjR-43">
          <mxGeometry relative="1" as="geometry">
            <mxPoint x="400" y="740" as="targetPoint" />
          </mxGeometry>
        </mxCell>
        <mxCell id="ZvPmPtM3IWRFJQo_KCjR-43" value="Khá" style="rounded=1;whiteSpace=wrap;html=1;absoluteArcSize=1;arcSize=14;strokeWidth=2;" vertex="1" parent="1">
          <mxGeometry x="250" y="650" width="60" height="40" as="geometry" />
        </mxCell>
        <mxCell id="ZvPmPtM3IWRFJQo_KCjR-51" style="edgeStyle=orthogonalEdgeStyle;rounded=0;orthogonalLoop=1;jettySize=auto;html=1;exitX=0.5;exitY=1;exitDx=0;exitDy=0;" edge="1" parent="1" source="ZvPmPtM3IWRFJQo_KCjR-44">
          <mxGeometry relative="1" as="geometry">
            <mxPoint x="399.7931034482758" y="740" as="targetPoint" />
          </mxGeometry>
        </mxCell>
        <mxCell id="ZvPmPtM3IWRFJQo_KCjR-44" value="Giỏi" style="rounded=1;whiteSpace=wrap;html=1;absoluteArcSize=1;arcSize=14;strokeWidth=2;" vertex="1" parent="1">
          <mxGeometry x="370" y="650" width="60" height="40" as="geometry" />
        </mxCell>
        <mxCell id="ZvPmPtM3IWRFJQo_KCjR-52" style="edgeStyle=orthogonalEdgeStyle;rounded=0;orthogonalLoop=1;jettySize=auto;html=1;exitX=0.5;exitY=1;exitDx=0;exitDy=0;" edge="1" parent="1" source="ZvPmPtM3IWRFJQo_KCjR-45">
          <mxGeometry relative="1" as="geometry">
            <mxPoint x="400" y="740" as="targetPoint" />
          </mxGeometry>
        </mxCell>
        <mxCell id="ZvPmPtM3IWRFJQo_KCjR-45" value="Xuất sắc" style="rounded=1;whiteSpace=wrap;html=1;absoluteArcSize=1;arcSize=14;strokeWidth=2;" vertex="1" parent="1">
          <mxGeometry x="465" y="650" width="60" height="40" as="geometry" />
        </mxCell>
        <mxCell id="ZvPmPtM3IWRFJQo_KCjR-47" style="edgeStyle=orthogonalEdgeStyle;rounded=0;orthogonalLoop=1;jettySize=auto;html=1;exitX=0.5;exitY=1;exitDx=0;exitDy=0;exitPerimeter=0;" edge="1" parent="1" source="ZvPmPtM3IWRFJQo_KCjR-40">
          <mxGeometry relative="1" as="geometry">
            <mxPoint x="400" y="650" as="targetPoint" />
          </mxGeometry>
        </mxCell>
        <mxCell id="ZvPmPtM3IWRFJQo_KCjR-48" style="edgeStyle=orthogonalEdgeStyle;rounded=0;orthogonalLoop=1;jettySize=auto;html=1;exitX=0.5;exitY=1;exitDx=0;exitDy=0;exitPerimeter=0;entryX=0.424;entryY=-0.004;entryDx=0;entryDy=0;entryPerimeter=0;" edge="1" parent="1" source="ZvPmPtM3IWRFJQo_KCjR-38" target="ZvPmPtM3IWRFJQo_KCjR-45">
          <mxGeometry relative="1" as="geometry" />
        </mxCell>
      </root>
    </mxGraphModel>
  </diagram>
</mxfile>
